<svg xmlns="http://www.w3.org/2000/svg" width="301" height="157.027" viewBox="0 0 301 157.027">
  <g id="Group_2" data-name="Group 2" transform="translate(-64 -104)">
    <path id="Path_5" data-name="Path 5" d="M226.325-13.223H-28.607V-127.465l42.784-42.784H272.393V-59.291L226.325-13.223Z" transform="translate(92.607 274.249)" fill="#41cd52"/>
    <path id="Path_6" data-name="Path 6" d="M6.069-2.541Q9.114.252,14.532.252T23-2.541a10.1,10.1,0,0,0,3.045-7.833V-28.98H22.218v18.354q0,7.518-7.686,7.518T6.846-10.626V-28.98H3.024v18.606A10.1,10.1,0,0,0,6.069-2.541ZM32.382-28.98V0H36.2V-28.98ZM41.874-3.066V0H59.6V-3.36H46.914l8.61-9.786a16.917,16.917,0,0,0,2.94-3.99,8.874,8.874,0,0,0,.882-3.948v-.63a7.505,7.505,0,0,0-1.071-4.011,7.155,7.155,0,0,0-3.066-2.709,10.635,10.635,0,0,0-4.683-.966,9.292,9.292,0,0,0-6.342,2.058,7.042,7.042,0,0,0-2.352,5.586V-21h3.7v-.462a4.443,4.443,0,0,1,1.281-3.444,5.179,5.179,0,0,1,3.633-1.176,5.489,5.489,0,0,1,3.738,1.176,4.124,4.124,0,0,1,1.344,3.276v.5a6.335,6.335,0,0,1-.651,2.835A13.788,13.788,0,0,1,52.584-15.2ZM84.756-26.775q-2.562-2.2-7.392-2.205H64.806V0h3.822V-11.634h8.736q4.872,0,7.413-2.226a8.086,8.086,0,0,0,2.541-6.426Q87.318-24.57,84.756-26.775Zm-2.73,10.5a7.014,7.014,0,0,1-4.578,1.239h-8.82V-25.578H77.2a7.516,7.516,0,0,1,4.788,1.239A5.007,5.007,0,0,1,83.5-20.244,4.913,4.913,0,0,1,82.026-16.275Zm27.51-5.229H105.8L99.5-4.578,92.9-21.5H89.082L97.776,0l-.252.714A3.527,3.527,0,0,1,96.1,2.646a5.676,5.676,0,0,1-2.814.546H91.77V6.426h1.512a8.5,8.5,0,0,0,4.41-1.008,6.311,6.311,0,0,0,2.562-3.276Zm6.279,18.669Q118.986.378,124.782.378q5.25,0,8.295-2.457A8.283,8.283,0,0,0,136.122-8.9v-.21h-3.78v.168a5.216,5.216,0,0,1-1.932,4.368,8.831,8.831,0,0,1-5.544,1.512q-4.242,0-6.321-2.268t-2.079-7.014v-4.074q0-4.914,2.058-7.224t6.3-2.31a8.925,8.925,0,0,1,5.565,1.512,5.147,5.147,0,0,1,1.953,4.326v.168h3.822v-.21a8.247,8.247,0,0,0-3.024-6.8q-3.024-2.436-8.274-2.436-5.838,0-9.03,3.213t-3.192,9.555v4.242Q112.644-6.048,115.815-2.835Zm27.258,1.26A6.893,6.893,0,0,0,148.05,0h2.31V-3.192h-1.848a3.706,3.706,0,0,1-2.709-.8,3.784,3.784,0,0,1-.777-2.688v-22.3h-3.57V-6.468A6.564,6.564,0,0,0,143.073-1.575Zm26.1-18.228q-2.394-1.995-6.888-2a9.968,9.968,0,0,0-6.216,1.743,5.686,5.686,0,0,0-2.268,4.767v.126h3.486v-.126a3.024,3.024,0,0,1,1.281-2.6,6.391,6.391,0,0,1,3.759-.924q5.67,0,5.67,4.872v1.47h-6.678a9.914,9.914,0,0,0-6.132,1.617,5.508,5.508,0,0,0-2.1,4.641,5.842,5.842,0,0,0,2.037,4.809A9.222,9.222,0,0,0,161.07.252q4.788,0,7.014-2.688V0h3.486V-14.028A7.091,7.091,0,0,0,169.176-19.8ZM166.488-3.99a6.939,6.939,0,0,1-4.7,1.344,6.886,6.886,0,0,1-3.906-.882,3.1,3.1,0,0,1-1.26-2.73A2.988,2.988,0,0,1,157.9-8.925a7.326,7.326,0,0,1,4.011-.861H168v1.68A5.228,5.228,0,0,1,166.488-3.99ZM178.5-1.533A10.975,10.975,0,0,0,185.178.252,11.756,11.756,0,0,0,192-1.491a5.625,5.625,0,0,0,2.5-4.893,4.919,4.919,0,0,0-1.743-4.032,10.305,10.305,0,0,0-5.355-1.848l-3.276-.42a7.282,7.282,0,0,1-3.318-.945,2.347,2.347,0,0,1-.966-2.037,2.667,2.667,0,0,1,1.344-2.394,7.728,7.728,0,0,1,4.032-.84,7.757,7.757,0,0,1,4.1.9,2.909,2.909,0,0,1,1.449,2.625v.126h3.4v-.168a5.448,5.448,0,0,0-2.394-4.662,11.11,11.11,0,0,0-6.594-1.722,10.691,10.691,0,0,0-6.384,1.7,5.464,5.464,0,0,0-2.352,4.683,4.89,4.89,0,0,0,1.68,3.969,9.976,9.976,0,0,0,5.25,1.827l3.066.378a8.421,8.421,0,0,1,3.549.966,2.338,2.338,0,0,1,1.113,2.1,2.8,2.8,0,0,1-1.533,2.562,8.493,8.493,0,0,1-4.221.882,7.716,7.716,0,0,1-4.41-1.008,3.173,3.173,0,0,1-1.428-2.73v-.084h-3.4v.126A5.772,5.772,0,0,0,178.5-1.533Zm21.672,0A10.975,10.975,0,0,0,206.85.252a11.756,11.756,0,0,0,6.825-1.743,5.625,5.625,0,0,0,2.5-4.893,4.919,4.919,0,0,0-1.743-4.032,10.305,10.305,0,0,0-5.355-1.848l-3.276-.42a7.282,7.282,0,0,1-3.318-.945,2.347,2.347,0,0,1-.966-2.037,2.667,2.667,0,0,1,1.344-2.394,7.728,7.728,0,0,1,4.032-.84,7.757,7.757,0,0,1,4.1.9,2.909,2.909,0,0,1,1.449,2.625v.126h3.4v-.168a5.448,5.448,0,0,0-2.394-4.662A11.11,11.11,0,0,0,206.85-21.8a10.691,10.691,0,0,0-6.384,1.7,5.464,5.464,0,0,0-2.352,4.683,4.89,4.89,0,0,0,1.68,3.969,9.976,9.976,0,0,0,5.25,1.827l3.066.378a8.421,8.421,0,0,1,3.549.966,2.338,2.338,0,0,1,1.113,2.1,2.8,2.8,0,0,1-1.533,2.562,8.493,8.493,0,0,1-4.221.882,7.716,7.716,0,0,1-4.41-1.008,3.173,3.173,0,0,1-1.428-2.73v-.084h-3.4v.126A5.772,5.772,0,0,0,200.172-1.533Z" transform="translate(104.976 194.4)" fill="#fff"/>
  </g>
</svg>
