<svg xmlns="http://www.w3.org/2000/svg" width="301" height="157.027" viewBox="0 0 301 157.027">
  <g id="Group_2" data-name="Group 2" transform="translate(-64 -104)">
    <path id="Path_5" data-name="Path 5" d="M226.325-13.223H-28.607V-127.465l42.784-42.784H272.393V-59.291L226.325-13.223Z" transform="translate(92.607 274.249)" fill="#41cd52"/>
    <path id="Path_6" data-name="Path 6" d="M8.022-1.05a13.724,13.724,0,0,0,6.132,1.3,13.96,13.96,0,0,0,6.2-1.3,9.567,9.567,0,0,0,4.116-3.717,10.769,10.769,0,0,0,1.449-5.649V-28.98h-5.5v18.4A5.9,5.9,0,0,1,18.774-6.09a6.449,6.449,0,0,1-4.62,1.554A6.3,6.3,0,0,1,9.576-6.09a5.99,5.99,0,0,1-1.6-4.494v-18.4h-5.5v18.564A10.769,10.769,0,0,0,3.927-4.767,9.592,9.592,0,0,0,8.022-1.05Zm23.1-27.93V0h5.5V-28.98Zm10.5,24.612V0h18.9V-4.83H49.056l7.812-8.232a13.925,13.925,0,0,0,2.73-3.654,9.065,9.065,0,0,0,.882-4.032v-.546a7.836,7.836,0,0,0-1.155-4.242,7.674,7.674,0,0,0-3.339-2.877,11.911,11.911,0,0,0-5.124-1.029,10.364,10.364,0,0,0-6.888,2.121,7.058,7.058,0,0,0-2.52,5.691v1.008H46.7v-.672A3.175,3.175,0,0,1,47.8-23.856a4.47,4.47,0,0,1,2.982-.924,4.489,4.489,0,0,1,3.045.966,3.321,3.321,0,0,1,1.113,2.646v.462a5.058,5.058,0,0,1-.546,2.331,9.775,9.775,0,0,1-1.932,2.415Zm43.2-22.26Q82.068-28.98,77.2-28.98H64.68V0h5.5V-11h6.8q5.082,0,7.833-2.352a8.156,8.156,0,0,0,2.751-6.552A8.356,8.356,0,0,0,84.819-26.628ZM82.068-19.95q0,4.116-4.662,4.116H70.182v-8.358h7.224a5.116,5.116,0,0,1,3.444,1.05A3.987,3.987,0,0,1,82.068-19.95Zm28.812-1.89h-5.418L100.254-7.224,94.584-21.84H88.956L97.86-.462l-.126.378a2.784,2.784,0,0,1-1.113,1.491,4.608,4.608,0,0,1-2.205.4H92.148V6.468h2.016a9,9,0,0,0,4.7-1.092A6.716,6.716,0,0,0,101.6,1.89Zm5.943,19.11Q120.078.462,125.916.462q5.376,0,8.526-2.646a9.174,9.174,0,0,0,3.15-7.434v-.21h-5.46v.21a4.656,4.656,0,0,1-1.617,3.759A6.794,6.794,0,0,1,126-4.494a6.564,6.564,0,0,1-5.166-1.932q-1.722-1.932-1.722-5.922v-4.158q0-4.158,1.7-6.174a6.354,6.354,0,0,1,5.145-2.016,6.74,6.74,0,0,1,4.536,1.407,4.8,4.8,0,0,1,1.638,3.843v.168h5.5v-.336a8.942,8.942,0,0,0-3.171-7.287,12.922,12.922,0,0,0-8.5-2.625q-5.838,0-9.114,3.192T113.568-16.8v4.536Q113.568-5.922,116.823-2.73Zm26.754.987Q145.362,0,149.058,0h2.9V-4.494h-1.974a3.268,3.268,0,0,1-2.331-.651A3.123,3.123,0,0,1,147-7.392V-28.98h-5.208V-7.056Q141.792-3.486,143.577-1.743Zm27.594-18.249q-2.5-2.1-7.161-2.1a11.029,11.029,0,0,0-6.615,1.785,5.722,5.722,0,0,0-2.457,4.893v.126h4.956v-.126a2.367,2.367,0,0,1,.945-1.932,4.887,4.887,0,0,1,3.045-.756q4.62,0,4.62,3.906v1.3h-5.838a10.187,10.187,0,0,0-6.237,1.638,5.59,5.59,0,0,0-2.163,4.746,6.255,6.255,0,0,0,2.037,5Q158.34.252,162.288.252a10.67,10.67,0,0,0,3.57-.525,8,8,0,0,0,2.772-1.743V0h5.04V-13.944A7.457,7.457,0,0,0,171.171-19.992ZM168.5-7.98q0,4.074-5.082,4.074a5.437,5.437,0,0,1-3.087-.714,2.311,2.311,0,0,1-1.029-2.016,2.224,2.224,0,0,1,1.05-2.037,6.39,6.39,0,0,1,3.276-.651H168.5ZM179.76-1.575A11.489,11.489,0,0,0,186.69.252a12.463,12.463,0,0,0,7.161-1.806,5.934,5.934,0,0,0,2.625-5.208,5.416,5.416,0,0,0-1.806-4.3,10.114,10.114,0,0,0-5.586-2l-3.486-.42A4.84,4.84,0,0,1,183.2-14.2a1.755,1.755,0,0,1-.714-1.47,1.92,1.92,0,0,1,1.029-1.743,6.41,6.41,0,0,1,3.171-.609,6.817,6.817,0,0,1,3.4.672,2.126,2.126,0,0,1,1.134,1.932v.126h4.83v-.168a5.653,5.653,0,0,0-2.478-4.872,11.631,11.631,0,0,0-6.846-1.764,11.188,11.188,0,0,0-6.678,1.764,5.806,5.806,0,0,0-2.436,5,5.3,5.3,0,0,0,1.743,4.263A10.294,10.294,0,0,0,184.8-9.114l3.234.378a6.275,6.275,0,0,1,2.667.756,1.759,1.759,0,0,1,.819,1.554,2,2,0,0,1-1.155,1.848,7.223,7.223,0,0,1-3.381.63,6.942,6.942,0,0,1-3.612-.756,2.32,2.32,0,0,1-1.218-2.058v-.084h-4.872v.126A6.02,6.02,0,0,0,179.76-1.575Zm22.092,0a11.489,11.489,0,0,0,6.93,1.827,12.463,12.463,0,0,0,7.161-1.806,5.934,5.934,0,0,0,2.625-5.208,5.416,5.416,0,0,0-1.806-4.3,10.114,10.114,0,0,0-5.586-2l-3.486-.42A4.84,4.84,0,0,1,205.3-14.2a1.755,1.755,0,0,1-.714-1.47,1.92,1.92,0,0,1,1.029-1.743,6.41,6.41,0,0,1,3.171-.609,6.817,6.817,0,0,1,3.4.672,2.126,2.126,0,0,1,1.134,1.932v.126h4.83v-.168a5.653,5.653,0,0,0-2.478-4.872,11.631,11.631,0,0,0-6.846-1.764,11.188,11.188,0,0,0-6.678,1.764,5.806,5.806,0,0,0-2.436,5,5.3,5.3,0,0,0,1.743,4.263,10.294,10.294,0,0,0,5.439,1.953l3.234.378a6.275,6.275,0,0,1,2.667.756,1.759,1.759,0,0,1,.819,1.554,2,2,0,0,1-1.155,1.848,7.223,7.223,0,0,1-3.381.63,6.942,6.942,0,0,1-3.612-.756,2.32,2.32,0,0,1-1.218-2.058v-.084h-4.872v.126A6.02,6.02,0,0,0,201.852-1.575Z" transform="translate(103.522 194.526)" fill="#fff"/>
  </g>
</svg>
